HIERARCHY
ROOT Hips
{
	OFFSET 0.000000 0.000000 0.000000
	CHANNELS 6 Xposition Yposition Zposition Zrotation Yrotation Xrotation 
	JOINT LHipJoint
	{
		OFFSET 0.000000 0.000000 0.000000
		CHANNELS 3 Zrotation Yrotation Xrotation
		JOINT LeftUpLeg
		{
			OFFSET 1.363060 -1.794630 0.839290
			CHANNELS 3 Zrotation Yrotation Xrotation
			JOINT LeftLeg
			{
				OFFSET 2.448110 -6.726130 0.000000
				CHANNELS 3 Zrotation Yrotation Xrotation
				JOINT LeftFoot
				{
					OFFSET 2.562200 -7.039590 0.000000
					CHANNELS 3 Zrotation Yrotation Xrotation
					JOINT LeftToeBase
					{
						OFFSET 0.157640 -0.433110 2.322550
						CHANNELS 3 Zrotation Yrotation Xrotation
						End Site
						{
							OFFSET 0.000000 0.000000 0.000000
						}
					}
				}
			}
		}
	}
	JOINT RHipJoint
	{
		OFFSET 0.000000 0.000000 0.000000
		CHANNELS 3 Zrotation Yrotation Xrotation
		JOINT RightUpLeg
		{
			OFFSET -1.305520 -1.794630 0.839290
			CHANNELS 3 Zrotation Yrotation Xrotation
			JOINT RightLeg
			{
				OFFSET -2.542530 -6.985550 0.000000
				CHANNELS 3 Zrotation Yrotation Xrotation
				JOINT RightFoot
				{
					OFFSET -2.568260 -7.056230 0.000000
					CHANNELS 3 Zrotation Yrotation Xrotation
					JOINT RightToeBase
					{
						OFFSET -0.164730 -0.452590 2.363150
						CHANNELS 3 Zrotation Yrotation Xrotation
						End Site
						{
							OFFSET 0.000000 0.000000 0.000000
						}
					}
				}
			}
		}
	}
	JOINT LowerBack
	{
		OFFSET 0.000000 0.000000 0.000000
		CHANNELS 3 Zrotation Yrotation Xrotation
		JOINT Spine
		{
			OFFSET 0.028270 2.035590 -0.193380
			CHANNELS 3 Zrotation Yrotation Xrotation
			JOINT Spine1
			{
				OFFSET 0.056720 2.048850 -0.042750
				CHANNELS 3 Zrotation Yrotation Xrotation
				JOINT Neck
				{
					OFFSET 0.000000 0.000000 0.000000
					CHANNELS 3 Zrotation Yrotation Xrotation
					JOINT Neck1
					{
						OFFSET -0.054170 1.746240 0.172020
						CHANNELS 3 Zrotation Yrotation Xrotation
						JOINT Head
						{
							OFFSET 0.104070 1.761360 -0.123970
							CHANNELS 3 Zrotation Yrotation Xrotation
							End Site
							{
								OFFSET 0.000000 0.000000 0.000000
							}
						}
					}
				}
				JOINT LeftShoulder
				{
					OFFSET 0.000000 0.000000 0.000000
					CHANNELS 3 Zrotation Yrotation Xrotation
					JOINT LeftArm
					{
						OFFSET 3.362410 1.200890 -0.311210
						CHANNELS 3 Zrotation Yrotation Xrotation
						JOINT LeftForeArm
						{
							OFFSET 4.983000 -0.000000 -0.000000
							CHANNELS 3 Zrotation Yrotation Xrotation
							JOINT LeftHand
							{
								OFFSET 3.483560 -0.000000 -0.000000
								CHANNELS 3 Zrotation Yrotation Xrotation
								JOINT LeftFingerBase
								{
									OFFSET 0.000000 0.000000 0.000000
									CHANNELS 3 Zrotation Yrotation Xrotation
									JOINT LeftHandIndex1
									{
										OFFSET 0.715260 -0.000000 -0.000000
										CHANNELS 3 Zrotation Yrotation Xrotation
										End Site
										{
											OFFSET 0.000000 0.000000 0.000000
										}
									}
								}
								JOINT LThumb
								{
									OFFSET 0.000000 0.000000 0.000000
									CHANNELS 3 Zrotation Yrotation Xrotation
									End Site
									{
										OFFSET 0.000000 0.000000 0.000000
									}
								}
							}
						}
					}
				}
				JOINT RightShoulder
				{
					OFFSET 0.000000 0.000000 0.000000
					CHANNELS 3 Zrotation Yrotation Xrotation
					JOINT RightArm
					{
						OFFSET -3.136600 1.374050 -0.404650
						CHANNELS 3 Zrotation Yrotation Xrotation
						JOINT RightForeArm
						{
							OFFSET -5.241900 -0.000000 -0.000000
							CHANNELS 3 Zrotation Yrotation Xrotation
							JOINT RightHand
							{
								OFFSET -3.444170 -0.000000 -0.000000
								CHANNELS 3 Zrotation Yrotation Xrotation
								JOINT RightFingerBase
								{
									OFFSET 0.000000 0.000000 0.000000
									CHANNELS 3 Zrotation Yrotation Xrotation
									JOINT RightHandIndex1
									{
										OFFSET -0.622530 -0.000000 -0.000000
										CHANNELS 3 Zrotation Yrotation Xrotation
										End Site
										{
											OFFSET 0.000000 0.000000 0.000000
										}
									}
								}
								JOINT RThumb
								{
									OFFSET 0.000000 0.000000 0.000000
									CHANNELS 3 Zrotation Yrotation Xrotation
									End Site
									{
										OFFSET 0.000000 0.000000 0.000000
									}
								}
							}
						}
					}
				}
			}
		}
	}
}
MOTION
Frames: 8
Frame Time: 0.008333
-0.232792 17.946492 -27.334295 -0.244132 0.911545 3.144551 -2.090584 -0.112017 1.137048 -15.931391 1.079278 -0.852173 -0.391934 3.348328 9.583017 0.404947 -1.516272 -4.214601 2.303900 -9.472300 -27.284200 1.210204 1.718072 -1.135052 18.155216 -2.207634 -2.859484 -1.235517 -6.823205 16.854549 0.216593 -6.133643 -13.765473 -0.052700 -1.481500 4.074800 -3.044783 -1.980489 6.552046 1.395459 -2.556319 -0.457975 4.603486 -1.692915 -2.929803 -8.812015 -8.434940 -4.322717 8.517756 -11.196782 4.825997 1.823300 -5.568300 3.978800 2.709727 5.878841 -0.692695 -94.749003 4.679187 -5.171894 29.983294 -45.634049 -12.134378 -0.845519 0.529135 -170.698324 25.030389 7.236514 3.442000 -7.125000 0.000000 0.000000 -2.340400 38.421000 0.379500 -2.233243 -6.744831 -1.269242 86.339705 10.055937 -21.281102 1.605970 3.718795 1.407334 -3.127957 0.193462 51.116048 -20.548287 -46.132513 13.121500 7.125000 0.000000 0.000000 34.377100 -73.543700 -23.943700 
-0.225445 17.945598 -27.323971 -0.219525 0.668641 3.038981 -2.088316 -0.114789 1.142685 -15.960969 1.380607 -0.711389 -0.389691 3.315357 9.502910 0.420751 -1.638304 -4.219107 2.398200 -9.650500 -27.852200 1.207216 1.716923 -1.139627 18.087277 -2.184184 -2.730122 -1.243629 -6.854834 16.930155 0.213731 -6.054143 -13.580508 -0.078700 -1.809600 4.979800 -3.090463 -1.940229 6.596152 1.326990 -2.516864 -0.456954 4.614442 -1.662259 -2.961167 -8.790056 -8.369820 -4.476071 8.582396 -11.098879 5.014893 1.842900 -5.506800 4.045700 2.750751 5.867040 -0.683135 -94.429773 3.994335 -10.029583 26.949346 -43.128572 -10.425552 -0.917326 0.619966 -167.821826 24.766421 6.915139 3.257000 -7.125000 0.000000 0.000000 -2.633400 38.080300 0.449000 -2.232848 -6.698716 -1.242736 86.040316 8.957841 -21.114183 1.065804 4.941984 1.303417 -3.063353 0.091698 49.607885 -20.201339 -45.852171 12.848400 7.125000 0.000000 0.000000 34.046700 -73.229700 -23.479900 
-0.221971 17.942719 -27.316724 -0.297161 0.524359 2.956664 -2.084005 -0.113931 1.148983 -15.844691 1.572301 -0.594413 -0.386278 3.288872 9.439410 0.440741 -1.794778 -4.196764 2.503500 -9.844300 -28.473900 1.203208 1.708549 -1.140424 18.179588 -2.115164 -2.641895 -1.253354 -6.891183 17.026349 0.226195 -6.087905 -13.431608 -0.111400 -2.152200 5.926300 -3.074602 -1.963372 6.624540 1.305143 -2.555737 -0.438588 4.627117 -1.672563 -2.958190 -8.846253 -8.222290 -4.516913 8.802453 -10.897858 5.009530 1.927300 -5.399500 4.047100 2.784291 5.856868 -0.676389 -93.998019 3.338118 -14.881488 24.372574 -40.765494 -9.037599 -0.970507 0.711450 -164.727370 24.631913 6.589551 3.091200 -7.125000 0.000000 0.000000 -2.803300 37.735200 0.501800 -2.223421 -6.661248 -1.212947 85.781305 7.891676 -20.895129 0.537664 6.172864 1.133002 -2.935927 -0.013503 47.608258 -18.832511 -44.455082 11.619200 7.125000 0.000000 0.000000 32.486000 -71.702300 -21.304100 
-0.219688 17.938550 -27.310371 -0.377363 0.409569 2.896870 -2.080722 -0.111482 1.154196 -15.736886 1.648591 -0.469977 -0.387905 3.264981 9.377953 0.444980 -1.816104 -4.233306 2.542500 -9.914800 -28.701100 1.200057 1.696971 -1.138621 18.283579 -2.001228 -2.627355 -1.271238 -6.954791 17.209446 0.245522 -6.182120 -13.320332 -0.156500 -2.549000 7.025500 -3.054873 -2.027794 6.669811 1.293096 -2.648752 -0.418615 4.643391 -1.709554 -2.969125 -8.802652 -8.052227 -4.715407 8.820670 -10.658662 5.148047 1.939100 -5.271400 4.092900 2.798943 5.842913 -0.671603 -93.431847 2.912812 -19.384576 22.333059 -38.710424 -7.983534 -0.996876 0.798493 -161.581670 24.427778 6.306597 2.935900 -7.125000 0.000000 0.000000 -3.016400 37.425000 0.563000 -2.206568 -6.622496 -1.175396 85.556453 6.814797 -20.601865 -0.040126 7.537929 0.906598 -2.761090 -0.133144 45.334412 -16.748596 -42.351001 9.829600 7.125000 0.000000 0.000000 30.839900 -69.366500 -18.611200 
-0.215221 17.933686 -27.303720 -0.257759 0.309164 2.875631 -2.084626 -0.116705 1.155014 -15.891452 1.761943 -0.416881 -0.392167 3.252143 9.344637 0.434394 -1.713787 -4.339770 2.605900 -10.027900 -29.067200 1.200393 1.692379 -1.136337 18.120557 -1.937408 -2.691728 -1.293891 -7.037075 17.448913 0.251060 -6.201126 -13.250311 -0.217600 -3.002800 8.286600 -3.209152 -2.115703 6.642592 1.215508 -2.787097 -0.373572 4.696109 -1.770617 -2.919174 -8.666951 -7.912894 -5.075184 8.724658 -10.452509 5.396893 1.898100 -5.155400 4.184600 2.798061 5.823272 -0.668744 -92.791788 2.728568 -23.234925 20.750399 -36.989766 -7.190436 -1.001574 0.871828 -158.163713 24.195056 6.305371 2.892700 -7.125000 0.000000 0.000000 -3.260900 37.400000 0.610700 -2.181250 -6.578950 -1.134675 85.358160 5.730245 -20.251335 -0.686115 9.051510 0.645360 -2.560995 -0.262758 43.102724 -14.458509 -39.981998 7.988900 7.125000 0.000000 0.000000 29.617600 -66.753100 -16.107900 
-0.212342 17.929119 -27.299153 -0.145071 0.181074 2.887870 -2.087674 -0.122640 1.156769 -16.009535 2.020864 -0.499581 -0.387266 3.261329 9.374908 0.449163 -1.800394 -4.435359 2.637500 -10.083700 -29.248100 1.196042 1.686369 -1.136991 17.990606 -1.852670 -2.785348 -1.315793 -7.109301 17.662895 0.291518 -6.387721 -12.933209 -0.335300 -3.721300 10.293900 -3.374188 -2.175568 6.557536 1.148578 -2.886460 -0.311123 4.753058 -1.814494 -2.828593 -8.671242 -7.797262 -5.453361 8.829393 -10.268145 5.673717 1.927300 -5.043500 4.301900 2.793076 5.807349 -0.667517 -92.208199 2.600218 -26.547120 19.513627 -35.551747 -6.584883 -0.997056 0.938833 -154.526228 24.154767 6.332584 2.884400 -7.125000 0.000000 0.000000 -3.338400 37.405500 0.624800 -2.146475 -6.523423 -1.093398 85.193486 4.614748 -19.925760 -1.393873 10.664878 0.368173 -2.353659 -0.397822 41.016500 -12.314388 -37.656256 6.390800 7.125000 0.000000 0.000000 28.805100 -64.233900 -13.975900 
-0.210952 17.924652 -27.295679 -0.252437 -0.032537 2.898834 -2.085330 -0.120241 1.160566 -15.850963 2.294594 -0.580824 -0.380086 3.268083 9.397255 0.468823 -1.931986 -4.472657 2.675400 -10.150100 -29.464300 1.195575 1.672214 -1.131171 18.146057 -1.648800 -2.879523 -1.340386 -7.175700 17.871493 0.285857 -6.360857 -12.990748 -0.336800 -3.729700 10.317300 -3.325977 -2.195442 6.499668 1.151058 -2.912618 -0.250852 4.735490 -1.825628 -2.764504 -8.599470 -7.702509 -5.809419 8.799887 -10.118533 5.915574 1.906700 -4.954400 4.401100 2.778500 5.797701 -0.670043 -91.688119 2.549954 -29.323966 18.663512 -34.487274 -6.179084 -0.987403 1.002691 -151.302141 24.603126 6.028447 2.806700 -7.125000 0.000000 0.000000 -2.967300 37.088200 0.578200 -2.111188 -6.489872 -1.053302 85.094517 3.849390 -12.919340 -1.938737 12.419983 0.192589 -2.226735 -0.831938 32.890074 -11.314883 -37.277129 5.781200 7.125000 0.000000 0.000000 29.215800 -63.585200 -13.751500 
-0.206683 17.920284 -27.292204 -0.225004 -0.300355 2.918085 -2.086112 -0.118926 1.161893 -15.893878 2.456879 -0.589450 -0.382994 3.250309 9.347215 0.462514 -1.880141 -4.495701 2.681800 -10.161200 -29.500500 1.197406 1.665286 -1.126157 18.105305 -1.455517 -2.999885 -1.369914 -7.249969 18.106310 0.255794 -6.168447 -13.041373 -0.342600 -3.761100 10.405600 -3.390134 -2.234799 6.447901 1.126935 -2.970461 -0.194211 4.748683 -1.856591 -2.692750 -8.547284 -7.581905 -6.104225 8.756505 -9.937327 6.084608 1.888800 -4.855100 4.471700 2.760274 5.791790 -0.673041 -91.283630 2.778010 -31.316873 18.210406 -33.872157 -5.968425 -0.976797 1.054059 -148.863653 25.436310 5.578919 2.713200 -7.125000 0.000000 0.000000 -2.255600 36.639600 0.464100 -2.080694 -6.475242 -1.024642 85.128833 3.573360 -8.295298 -2.475321 13.863086 0.041305 -2.096438 -1.131271 27.431320 -10.437398 -37.097330 5.273300 7.125000 0.000000 0.000000 29.755400 -63.148200 -13.724600 
